# xmcd
#
# Track frame offsets:
#       150
#       11098
#       25401
#       43997
#       59383
#       75968
#       90753
#       101137
#       114264
#       131857
#       149239
#       163728
#       176984
#       195045
#       205191
#
# Disc length: 2864 seconds
#
# Revision: 2
# Processed by: cddbd v1.5.2PL0 Copyright (c) Steve Scherf et al.
# Submitted via: FreeDbEdit v0.1
#
DISCID=cd0b2e0f
DTITLE=Various Artist - A Country Christmas [CD2]
DYEAR=1999
DGENRE=Country
TTITLE0=Skeeter Davis - Rudolph the Rednosed Reindeer
TTITLE1=Jeanie C. Riley - Silver Bells 
TTITLE2=Eddy Raven - Have Yourself a Merry Little Christmas
TTITLE3=Tom T. Hall - O Christmas Tree 
TTITLE4=Willie Nelson - Deck the Halls
TTITLE5=Charley Pride - Joy to the World
TTITLE6=Larry Gatlin - I Heard the Bells on Christmas Day
TTITLE7=Joe Stampley - Please Come Home for Christmas
TTITLE8=Glen Campbell - Carol Medley 
TTITLE9=Willie Nelson - Away in Manger
TTITLE10=Billy Walker - The Christmas Song 
TTITLE11=Roy Clark - God Rest Ye Merry Gentlemen 
TTITLE12=Bill Anderson - It Came Upon a Midnight Clear
TTITLE13=Merle Haggard - Santa Claus and Popcorn
TTITLE14=Willie Nelson  - We Wish You a Merry Christmas
EXTD=CH 860002
EXTT0=
EXTT1=
EXTT2=
EXTT3=
EXTT4=
EXTT5=
EXTT6=
EXTT7=
EXTT8=
EXTT9=
EXTT10=
EXTT11=
EXTT12=
EXTT13=
EXTT14=
PLAYORDER=
